<?xml version="1.0" encoding="UTF-8" standalone="no"?>
<svg
   xmlns:dc="http://purl.org/dc/elements/1.1/"
   xmlns:cc="http://creativecommons.org/ns#"
   xmlns:rdf="http://www.w3.org/1999/02/22-rdf-syntax-ns#"
   xmlns:svg="http://www.w3.org/2000/svg"
   xmlns="http://www.w3.org/2000/svg"
   xml:space="preserve"
   style="enable-background:new 0 0 504.627 504.627;"
   viewBox="0 0 504.627 504.627"
   y="0px"
   x="0px"
   id="Layer_1"
   version="1.1"><metadata
   id="metadata61"><rdf:RDF><cc:Work
       rdf:about=""><dc:format>image/svg+xml</dc:format><dc:type
         rdf:resource="http://purl.org/dc/dcmitype/StillImage" /><dc:title></dc:title></cc:Work></rdf:RDF></metadata><defs
   id="defs59" />























<g
   transform="matrix(0.75290108,0.56200557,-0.56200557,0.75290108,204.15133,-79.456411)"
   id="g90"><path
     style="fill:#00ffff"
     d="M 207.045,314.817 C 125.55,314.817 59.479,248.753 59.479,167.259 59.479,85.765 125.55,19.692 207.045,19.692"
     id="path2" /><path
     style="fill:#144763"
     d="M 207.045,334.509 C 114.814,334.509 39.786,259.481 39.786,167.258 39.786,75.035 114.814,0 207.045,0 c 10.878,0 19.692,8.814 19.692,19.692 0,10.878 -8.814,19.692 -19.692,19.692 -70.506,0 -127.874,57.36 -127.874,127.866 0,70.506 57.368,127.866 127.874,127.866 10.878,0 19.692,8.814 19.692,19.692 0,10.879 -8.814,19.701 -19.692,19.701 z"
     id="path4" /><path
     style="fill:#00ffff"
     d="m 297.582,189.818 c 81.51,0 147.566,66.056 147.566,147.551 0,81.51 -66.064,147.558 -147.566,147.558"
     id="path6" /><path
     style="fill:#144763"
     d="m 297.582,504.627 c -10.878,0 -19.692,-8.814 -19.692,-19.692 0,-10.878 8.814,-19.692 19.692,-19.692 70.514,0 127.874,-57.36 127.874,-127.866 0,-70.498 -57.36,-127.858 -127.874,-127.858 -10.878,0 -19.692,-8.814 -19.692,-19.692 0,-10.878 8.814,-19.692 19.692,-19.692 92.231,0 167.259,75.02 167.259,167.243 0,92.223 -75.028,167.249 -167.259,167.249 z"
     id="path8" /><polyline
     style="fill:#87ea06"
     points="264.767,314.652 305.168,314.652 305.168,355.052 "
     id="polyline10" /><path
     style="fill:#144763"
     d="m 305.168,374.745 c -10.878,0 -19.692,-8.814 -19.692,-19.692 v -20.708 h -20.708 c -10.878,0 -19.692,-8.814 -19.692,-19.692 0,-10.878 8.814,-19.692 19.692,-19.692 h 40.401 c 10.878,0 19.692,8.814 19.692,19.692 v 40.401 c -10e-4,10.876 -8.815,19.691 -19.693,19.691 z"
     id="path12" /><polyline
     style="fill:#87ea06"
     points="239.86,189.976 199.459,189.976 199.459,149.575 "
     id="polyline14" /><path
     style="fill:#144763"
     d="m 239.86,209.668 h -40.401 c -10.878,0 -19.692,-8.814 -19.692,-19.692 v -40.401 c 0,-10.878 8.814,-19.692 19.692,-19.692 10.878,0 19.692,8.814 19.692,19.692 v 20.708 h 20.708 c 10.878,0 19.692,8.814 19.692,19.692 0,10.878 -8.813,19.693 -19.691,19.693 z"
     id="path16" /><g
     id="g24"
     style="fill:#00ffff">
	<circle
   style="fill:#00ffff"
   cx="220.31"
   cy="252.314"
   r="8.3730001"
   id="circle18" />
	<circle
   style="fill:#00ffff"
   cx="252.314"
   cy="252.314"
   r="8.3730001"
   id="circle20" />
	<circle
   style="fill:#00ffff"
   cx="284.31"
   cy="252.314"
   r="8.3649998"
   id="circle22" />
</g><g
     id="g26">
</g><g
     id="g28">
</g><g
     id="g30">
</g><g
     id="g32">
</g><g
     id="g34">
</g><g
     id="g36">
</g><g
     id="g38">
</g><g
     id="g40">
</g><g
     id="g42">
</g><g
     id="g44">
</g><g
     id="g46">
</g><g
     id="g48">
</g><g
     id="g50">
</g><g
     id="g52">
</g><g
     id="g54">
</g></g>
</svg>